<?xml version="1.0" encoding="utf-8"?>
<!-- Generator: Adobe Illustrator 21.0.0, SVG Export Plug-In . SVG Version: 6.00 Build 0)  -->
<svg version="1.1" id="Layer_1" xmlns="http://www.w3.org/2000/svg" xmlns:xlink="http://www.w3.org/1999/xlink" x="0px" y="0px"
	 viewBox="0 0 512 512" style="enable-background:new 0 0 512 512;" xml:space="preserve">
<g>
	<path d="M311.3,0.4L298.1,13L196.3,115.3l-13.2,12.6l-18.3,18.3l-41.7,42.3l-10.3,10.3l8,12.6c0,0,11.2,17.2,20,36
		c4.4,9.4,8.4,19.4,9.7,26.3c0.6,3.4,0.7,5.5,0.6,6.3c-2,1.6-26.1,20.7-54.9,44c-30,24.3-61.9,49.9-74.9,62.9
		c-28.5,28.5-28.5,75.1,0,103.5c28.3,28.3,74.5,28.1,102.9,0h0.6c13.1-13.1,39.3-44.5,63.5-74.3c23.6-29.2,43.5-54,44.6-55.5
		c-0.1,0.1,0.8-1.1,7.4,0c6.6,1.1,16.1,4.6,25.2,9.1c18.2,9.1,34.9,21.2,34.9,21.2L313,400l10.9-10.9l42.3-41.7l18.3-18.3l12.6-13.2
		l102.4-101.8l12.6-13.2L499.4,188l-175-175L311.3,0.4z M335.3,95.9c3.5,0.3,6.2,1.6,8.6,4c9.4,9.4-4.3,46.1-10.9,61.8
		s-4.5,28,4,36.6c14.5,14.7,52.9-19.8,69.2-3.4c16.2,16.4-13.3,51.2-2.9,61.8l0.6,0.6l-32.6,32.6L222.6,141.1l25.2-25.2l1.1,1.1
		c12.4,12.5,38,0.6,48.6-6.3C310.1,102.7,324.9,95,335.3,95.9z M196.3,167.4L345,316.1l-5.1,5.1l-31.5,32c-7.1-4.9-12-8.9-26.3-16
		c-10.9-5.4-22.8-10.4-35.5-12.6s-28.7-1.6-40,9.7l-0.6,1.1l-0.6,0.6c0,0-21.6,27.4-45.7,57.2s-52.2,63-60.6,71.5
		c-14.4,14.4-37,14.4-51.5,0c-14.4-14.4-14.4-37,0-51.5c8.4-8.4,41.7-36.5,71.5-60.6c29.8-24.2,57.2-45.7,57.2-45.7l0.6-0.6l1.1-0.6
		c11.6-11.5,10.9-26.8,8.6-38.9c-2.3-12.1-7.4-23.9-12.6-34.9c-6.9-14.9-11-20.3-15.4-27.4l32.6-32L196.3,167.4z M78,414.4
		c-11.1,0-20,8.9-20,20s8.9,20,20,20s20-8.9,20-20S89,414.4,78,414.4z"/>
</g>
</svg>
